<svg xmlns="http://www.w3.org/2000/svg" viewBox="0 0 512 512">
  <defs>
    <linearGradient id="bg" x1="0%" y1="0%" x2="100%" y2="100%">
      <stop offset="0%" style="stop-color:#7c3aed"/>
      <stop offset="50%" style="stop-color:#a855f7"/>
      <stop offset="100%" style="stop-color:#ec4899"/>
    </linearGradient>
  </defs>
  <rect width="512" height="512" rx="112" fill="url(#bg)"/>
  <g transform="translate(256,256)" fill="white">
    <!-- Music note -->
    <path d="M60-120 L60 60 C60 95 30 120 -10 120 C-50 120 -80 95 -80 60 C-80 25 -50 0 -10 0 C10 0 28 8 40 20 L40-100 Z" opacity="0.95"/>
    <!-- Second note -->
    <path d="M60-120 L160-150 L160-30 L60-10 Z" opacity="0.9"/>
    <path d="M160-30 L160 30 C160 65 130 90 90 90 C50 90 20 65 20 30 C20-5 50-30 90-30 C110-30 128-22 140-10 L140-10 Z" opacity="0.95"/>
    <!-- Pulse bars -->
    <rect x="-180" y="-20" width="16" height="40" rx="8" opacity="0.6"/>
    <rect x="-155" y="-50" width="16" height="100" rx="8" opacity="0.7"/>
    <rect x="-130" y="-35" width="16" height="70" rx="8" opacity="0.6"/>
  </g>
</svg>
